<mxfile host="app.diagrams.net" modified="2023-10-09T06:34:59.893Z" agent="Mozilla/5.0 (Windows NT 10.0; Win64; x64) AppleWebKit/537.36 (KHTML, like Gecko) Chrome/117.0.0.0 Safari/537.36" etag="z36Bmp33UsU05mK8LQoq" version="21.7.2" type="github">
  <diagram name="第 1 页" id="rrBTX7J0dC_r2xTEfbI0">
    <mxGraphModel dx="1050" dy="566" grid="1" gridSize="10" guides="1" tooltips="1" connect="1" arrows="1" fold="1" page="1" pageScale="1" pageWidth="827" pageHeight="1169" math="0" shadow="0">
      <root>
        <mxCell id="0" />
        <mxCell id="1" parent="0" />
        <mxCell id="UjRvgO2PMNDpEfrD_Gey-28" value="" style="rounded=0;whiteSpace=wrap;html=1;" vertex="1" parent="1">
          <mxGeometry x="350" y="700" width="340" height="116" as="geometry" />
        </mxCell>
        <mxCell id="UjRvgO2PMNDpEfrD_Gey-29" value="" style="endArrow=classic;html=1;rounded=0;" edge="1" parent="1">
          <mxGeometry width="50" height="50" relative="1" as="geometry">
            <mxPoint x="380" y="745" as="sourcePoint" />
            <mxPoint x="660" y="745" as="targetPoint" />
          </mxGeometry>
        </mxCell>
        <mxCell id="UjRvgO2PMNDpEfrD_Gey-30" value="&lt;font style=&quot;font-size: 11px;&quot;&gt;递归获取所有部门ID&lt;/font&gt;" style="text;html=1;align=center;verticalAlign=middle;resizable=0;points=[];autosize=1;strokeColor=none;fillColor=none;" vertex="1" parent="1">
          <mxGeometry x="466" y="715" width="130" height="30" as="geometry" />
        </mxCell>
        <mxCell id="UjRvgO2PMNDpEfrD_Gey-31" value="" style="endArrow=classic;html=1;rounded=0;" edge="1" parent="1">
          <mxGeometry width="50" height="50" relative="1" as="geometry">
            <mxPoint x="380" y="786" as="sourcePoint" />
            <mxPoint x="660" y="786" as="targetPoint" />
          </mxGeometry>
        </mxCell>
        <mxCell id="UjRvgO2PMNDpEfrD_Gey-32" value="&lt;font style=&quot;font-size: 11px;&quot;&gt;获取部门下的所有用户信息&lt;/font&gt;" style="text;html=1;align=center;verticalAlign=middle;resizable=0;points=[];autosize=1;strokeColor=none;fillColor=none;" vertex="1" parent="1">
          <mxGeometry x="446" y="756" width="170" height="30" as="geometry" />
        </mxCell>
        <mxCell id="UjRvgO2PMNDpEfrD_Gey-20" value="" style="rounded=0;whiteSpace=wrap;html=1;" vertex="1" parent="1">
          <mxGeometry x="350" y="234" width="340" height="116" as="geometry" />
        </mxCell>
        <mxCell id="UjRvgO2PMNDpEfrD_Gey-1" value="业务方" style="rounded=1;whiteSpace=wrap;html=1;" vertex="1" parent="1">
          <mxGeometry x="40" y="40" width="120" height="60" as="geometry" />
        </mxCell>
        <mxCell id="UjRvgO2PMNDpEfrD_Gey-2" value="消息中心" style="rounded=1;whiteSpace=wrap;html=1;" vertex="1" parent="1">
          <mxGeometry x="320" y="40" width="120" height="60" as="geometry" />
        </mxCell>
        <mxCell id="UjRvgO2PMNDpEfrD_Gey-3" value="钉钉" style="rounded=1;whiteSpace=wrap;html=1;" vertex="1" parent="1">
          <mxGeometry x="600" y="40" width="120" height="60" as="geometry" />
        </mxCell>
        <mxCell id="UjRvgO2PMNDpEfrD_Gey-5" value="" style="endArrow=none;html=1;rounded=0;" edge="1" parent="1">
          <mxGeometry width="50" height="50" relative="1" as="geometry">
            <mxPoint x="100" y="960" as="sourcePoint" />
            <mxPoint x="100" y="100" as="targetPoint" />
          </mxGeometry>
        </mxCell>
        <mxCell id="UjRvgO2PMNDpEfrD_Gey-6" value="" style="endArrow=none;html=1;rounded=0;" edge="1" parent="1">
          <mxGeometry width="50" height="50" relative="1" as="geometry">
            <mxPoint x="380" y="960" as="sourcePoint" />
            <mxPoint x="379.5" y="100" as="targetPoint" />
          </mxGeometry>
        </mxCell>
        <mxCell id="UjRvgO2PMNDpEfrD_Gey-7" value="" style="endArrow=none;html=1;rounded=0;" edge="1" parent="1">
          <mxGeometry width="50" height="50" relative="1" as="geometry">
            <mxPoint x="660" y="960" as="sourcePoint" />
            <mxPoint x="659.5" y="100" as="targetPoint" />
          </mxGeometry>
        </mxCell>
        <mxCell id="UjRvgO2PMNDpEfrD_Gey-8" value="" style="endArrow=classic;html=1;rounded=0;" edge="1" parent="1">
          <mxGeometry width="50" height="50" relative="1" as="geometry">
            <mxPoint x="380" y="279" as="sourcePoint" />
            <mxPoint x="660" y="279" as="targetPoint" />
          </mxGeometry>
        </mxCell>
        <mxCell id="UjRvgO2PMNDpEfrD_Gey-13" value="" style="html=1;points=[[0,0,0,0,5],[0,1,0,0,-5],[1,0,0,0,5],[1,1,0,0,-5]];perimeter=orthogonalPerimeter;outlineConnect=0;targetShapes=umlLifeline;portConstraint=eastwest;newEdgeStyle={&quot;curved&quot;:0,&quot;rounded&quot;:0};" vertex="1" parent="1">
          <mxGeometry x="375" y="140" width="10" height="40" as="geometry" />
        </mxCell>
        <mxCell id="UjRvgO2PMNDpEfrD_Gey-14" value="开启钉钉通道" style="html=1;align=left;spacingLeft=2;endArrow=block;rounded=0;edgeStyle=orthogonalEdgeStyle;curved=0;rounded=0;" edge="1" target="UjRvgO2PMNDpEfrD_Gey-13" parent="1">
          <mxGeometry relative="1" as="geometry">
            <mxPoint x="380" y="120" as="sourcePoint" />
            <Array as="points">
              <mxPoint x="410" y="150" />
            </Array>
          </mxGeometry>
        </mxCell>
        <mxCell id="UjRvgO2PMNDpEfrD_Gey-15" value="&lt;font style=&quot;font-size: 11px;&quot;&gt;递归获取所有部门ID&lt;/font&gt;" style="text;html=1;align=center;verticalAlign=middle;resizable=0;points=[];autosize=1;strokeColor=none;fillColor=none;" vertex="1" parent="1">
          <mxGeometry x="466" y="249" width="130" height="30" as="geometry" />
        </mxCell>
        <mxCell id="UjRvgO2PMNDpEfrD_Gey-16" value="" style="endArrow=classic;html=1;rounded=0;" edge="1" parent="1">
          <mxGeometry width="50" height="50" relative="1" as="geometry">
            <mxPoint x="380" y="320" as="sourcePoint" />
            <mxPoint x="660" y="320" as="targetPoint" />
          </mxGeometry>
        </mxCell>
        <mxCell id="UjRvgO2PMNDpEfrD_Gey-17" value="&lt;font style=&quot;font-size: 11px;&quot;&gt;获取部门下的所有用户信息&lt;/font&gt;" style="text;html=1;align=center;verticalAlign=middle;resizable=0;points=[];autosize=1;strokeColor=none;fillColor=none;" vertex="1" parent="1">
          <mxGeometry x="446" y="290" width="170" height="30" as="geometry" />
        </mxCell>
        <mxCell id="UjRvgO2PMNDpEfrD_Gey-18" value="" style="html=1;points=[[0,0,0,0,5],[0,1,0,0,-5],[1,0,0,0,5],[1,1,0,0,-5]];perimeter=orthogonalPerimeter;outlineConnect=0;targetShapes=umlLifeline;portConstraint=eastwest;newEdgeStyle={&quot;curved&quot;:0,&quot;rounded&quot;:0};" vertex="1" parent="1">
          <mxGeometry x="375" y="410" width="10" height="40" as="geometry" />
        </mxCell>
        <mxCell id="UjRvgO2PMNDpEfrD_Gey-19" value="缓存手机号和钉钉userId" style="html=1;align=left;spacingLeft=2;endArrow=block;rounded=0;edgeStyle=orthogonalEdgeStyle;curved=0;rounded=0;" edge="1" parent="1" target="UjRvgO2PMNDpEfrD_Gey-18">
          <mxGeometry x="0.0118" relative="1" as="geometry">
            <mxPoint x="380" y="390" as="sourcePoint" />
            <Array as="points">
              <mxPoint x="410" y="420" />
            </Array>
            <mxPoint as="offset" />
          </mxGeometry>
        </mxCell>
        <mxCell id="UjRvgO2PMNDpEfrD_Gey-21" value="获取所有用户信息" style="text;html=1;strokeColor=none;fillColor=none;align=center;verticalAlign=middle;whiteSpace=wrap;rounded=0;" vertex="1" parent="1">
          <mxGeometry x="400" y="204" width="110" height="30" as="geometry" />
        </mxCell>
        <mxCell id="UjRvgO2PMNDpEfrD_Gey-22" value="" style="endArrow=classic;html=1;rounded=0;" edge="1" parent="1">
          <mxGeometry width="50" height="50" relative="1" as="geometry">
            <mxPoint x="100" y="480" as="sourcePoint" />
            <mxPoint x="380" y="480" as="targetPoint" />
          </mxGeometry>
        </mxCell>
        <mxCell id="UjRvgO2PMNDpEfrD_Gey-23" value="&lt;font style=&quot;font-size: 11px;&quot;&gt;发送消息（手机号或者用户ID）&lt;/font&gt;" style="text;html=1;align=center;verticalAlign=middle;resizable=0;points=[];autosize=1;strokeColor=none;fillColor=none;" vertex="1" parent="1">
          <mxGeometry x="150" y="450" width="190" height="30" as="geometry" />
        </mxCell>
        <mxCell id="UjRvgO2PMNDpEfrD_Gey-24" value="" style="html=1;points=[[0,0,0,0,5],[0,1,0,0,-5],[1,0,0,0,5],[1,1,0,0,-5]];perimeter=orthogonalPerimeter;outlineConnect=0;targetShapes=umlLifeline;portConstraint=eastwest;newEdgeStyle={&quot;curved&quot;:0,&quot;rounded&quot;:0};" vertex="1" parent="1">
          <mxGeometry x="375" y="545" width="10" height="40" as="geometry" />
        </mxCell>
        <mxCell id="UjRvgO2PMNDpEfrD_Gey-25" value="通过手机号查询缓存的钉钉userId" style="html=1;align=left;spacingLeft=2;endArrow=block;rounded=0;edgeStyle=orthogonalEdgeStyle;curved=0;rounded=0;" edge="1" parent="1" target="UjRvgO2PMNDpEfrD_Gey-24">
          <mxGeometry relative="1" as="geometry">
            <mxPoint x="380" y="525" as="sourcePoint" />
            <Array as="points">
              <mxPoint x="410" y="555" />
            </Array>
          </mxGeometry>
        </mxCell>
        <mxCell id="UjRvgO2PMNDpEfrD_Gey-26" value="" style="endArrow=classic;html=1;rounded=0;" edge="1" parent="1">
          <mxGeometry width="50" height="50" relative="1" as="geometry">
            <mxPoint x="380" y="615" as="sourcePoint" />
            <mxPoint x="660" y="615" as="targetPoint" />
          </mxGeometry>
        </mxCell>
        <mxCell id="UjRvgO2PMNDpEfrD_Gey-27" value="&lt;font style=&quot;font-size: 12px;&quot;&gt;钉钉userid存在，发送消息通知&lt;br&gt;不存在，记录失败（手机号未注册钉钉）&lt;br&gt;&lt;/font&gt;" style="text;html=1;align=center;verticalAlign=middle;resizable=0;points=[];autosize=1;strokeColor=none;fillColor=none;" vertex="1" parent="1">
          <mxGeometry x="405" y="580" width="240" height="40" as="geometry" />
        </mxCell>
        <mxCell id="UjRvgO2PMNDpEfrD_Gey-33" value="每隔1小时，获取一次所有用户信息" style="text;html=1;strokeColor=none;fillColor=none;align=center;verticalAlign=middle;whiteSpace=wrap;rounded=0;" vertex="1" parent="1">
          <mxGeometry x="385" y="670" width="235" height="30" as="geometry" />
        </mxCell>
        <mxCell id="UjRvgO2PMNDpEfrD_Gey-34" value="" style="html=1;points=[[0,0,0,0,5],[0,1,0,0,-5],[1,0,0,0,5],[1,1,0,0,-5]];perimeter=orthogonalPerimeter;outlineConnect=0;targetShapes=umlLifeline;portConstraint=eastwest;newEdgeStyle={&quot;curved&quot;:0,&quot;rounded&quot;:0};" vertex="1" parent="1">
          <mxGeometry x="375" y="880" width="10" height="40" as="geometry" />
        </mxCell>
        <mxCell id="UjRvgO2PMNDpEfrD_Gey-35" value="更新缓存手机号和钉钉userId" style="html=1;align=left;spacingLeft=2;endArrow=block;rounded=0;edgeStyle=orthogonalEdgeStyle;curved=0;rounded=0;" edge="1" parent="1" target="UjRvgO2PMNDpEfrD_Gey-34">
          <mxGeometry relative="1" as="geometry">
            <mxPoint x="380" y="860" as="sourcePoint" />
            <Array as="points">
              <mxPoint x="410" y="890" />
            </Array>
          </mxGeometry>
        </mxCell>
      </root>
    </mxGraphModel>
  </diagram>
</mxfile>
